<?xml version="1.0" encoding="UTF-8" standalone="no"?>
<svg
   width="40"
   height="40"
   viewBox="0 0 40 40"
   version="1.1"
   id="svg7"
   sodipodi:docname="annotation-note.svg"
   inkscape:version="1.1.2 (0a00cf5339, 2022-02-04)"
   xmlns:inkscape="http://www.inkscape.org/namespaces/inkscape"
   xmlns:sodipodi="http://sodipodi.sourceforge.net/DTD/sodipodi-0.dtd"
   xmlns="http://www.w3.org/2000/svg"
   xmlns:svg="http://www.w3.org/2000/svg">
  <defs
     id="defs11" />
  <sodipodi:namedview
     id="namedview9"
     pagecolor="#ffffff"
     bordercolor="#666666"
     borderopacity="1.0"
     inkscape:pageshadow="2"
     inkscape:pageopacity="0.0"
     inkscape:pagecheckerboard="0"
     showgrid="false"
     inkscape:zoom="10.4875"
     inkscape:cx="7.2467223"
     inkscape:cy="24.696067"
     inkscape:window-width="1920"
     inkscape:window-height="1011"
     inkscape:window-x="0"
     inkscape:window-y="32"
     inkscape:window-maximized="1"
     inkscape:current-layer="svg7" />
  <rect
     width="38.450306"
     height="38.523563"
     x="0.76075655"
     y="0.81333971"
     id="rect4"
     style="fill:#ffff00;fill-opacity:0;fill-rule:evenodd;stroke:#000000;stroke-width:1.41341;stroke-opacity:1" />
  <rect
     width="27.96859"
     height="1.5012145"
     x="6.0157046"
     y="10.285"
     id="rect6"
     style="fill:#000000;fill-opacity:1;stroke:none" />
  <rect
     width="27.96859"
     height="0.85783684"
     x="6.0157056"
     y="23.21689"
     id="rect8"
     style="fill:#000000;fill-opacity:1;stroke:none" />
  <rect
     width="27.96859"
     height="0.85783684"
     x="5.8130345"
     y="28.964394"
     id="rect10"
     style="fill:#000000;fill-opacity:1;stroke:none" />
  <rect
     width="27.96859"
     height="0.85783684"
     x="6.0157046"
     y="17.426493"
     id="rect12"
     style="fill:#000000;fill-opacity:1;stroke:none" />
  <path
     style="fill:none;fill-opacity:0;stroke-width:0.0953516"
     d="M 2.6221692,20 V 5.0774732 H 20 37.377831 V 20 34.922527 H 20 2.6221692 Z m 31.1698468,9.404052 0.01371,-0.441001 H 19.787248 5.7687723 v 0.421136 c 0,0.231626 0.014339,0.435475 0.031864,0.453001 0.017525,0.01752 6.3196707,0.02646 14.0047677,0.01986 l 13.972904,-0.012 z m 0.200833,-5.756853 v -0.45292 H 20 6.0071514 v 0.45292 0.45292 H 20 33.992849 Z m 0,-5.768772 v -0.45292 H 20 6.0071514 v 0.45292 0.45292 H 20 33.992849 Z m 0,-6.841478 V 10.274136 H 20 6.0071514 v 0.762813 0.762813 H 20 33.992849 Z"
     id="path34483" />
  <path
     style="fill:none;fill-opacity:0;stroke-width:0.0953516"
     d="M 2.6221692,20 V 5.0774732 H 20 37.377831 V 20 34.922527 H 20 2.6221692 Z m 31.1698468,9.404052 0.01371,-0.441001 H 19.787248 5.7687723 v 0.421136 c 0,0.231626 0.014339,0.435475 0.031864,0.453001 0.017525,0.01752 6.3196707,0.02646 14.0047677,0.01986 l 13.972904,-0.012 z m 0.200833,-5.756853 v -0.45292 H 20 6.0071514 v 0.45292 0.45292 H 20 33.992849 Z m 0,-5.768772 v -0.45292 H 20 6.0071514 v 0.45292 0.45292 H 20 33.992849 Z m 0,-6.841478 V 10.274136 H 20 6.0071514 v 0.762813 0.762813 H 20 33.992849 Z"
     id="path34522" />
  <path
     style="fill:#e6e6e6;fill-opacity:0;stroke-width:0.0953516"
     d="M 2.6221692,20 V 5.0774732 H 20 37.377831 V 20 34.922527 H 20 2.6221692 Z m 31.1698468,9.404052 0.01371,-0.441001 H 19.787248 5.7687723 v 0.421136 c 0,0.231626 0.014339,0.435475 0.031864,0.453001 0.017525,0.01752 6.3196707,0.02646 14.0047677,0.01986 l 13.972904,-0.012 z m 0.200833,-5.756853 v -0.45292 H 20 6.0071514 v 0.45292 0.45292 H 20 33.992849 Z m 0,-5.768772 v -0.45292 H 20 6.0071514 v 0.45292 0.45292 H 20 33.992849 Z m 0,-6.841478 V 10.274136 H 20 6.0071514 v 0.762813 0.762813 H 20 33.992849 Z"
     id="path34561" />
  <path
     style="fill:#e6e6e6;fill-opacity:0;stroke-width:0.0953516"
     d="M 2.6221692,20 V 5.0774732 H 20 37.377831 V 20 34.922527 H 20 2.6221692 Z m 31.1698468,9.404052 0.01371,-0.441001 H 19.787248 5.7687723 v 0.421136 c 0,0.231626 0.014339,0.435475 0.031864,0.453001 0.017525,0.01752 6.3196707,0.02646 14.0047677,0.01986 l 13.972904,-0.012 z m 0.200833,-5.756853 v -0.45292 H 20 6.0071514 v 0.45292 0.45292 H 20 33.992849 Z m 0,-5.768772 v -0.45292 H 20 6.0071514 v 0.45292 0.45292 H 20 33.992849 Z m 0,-6.841478 V 10.274136 H 20 6.0071514 v 0.762813 0.762813 H 20 33.992849 Z"
     id="path34637" />
  <path
     style="fill:#e6e6e6;fill-opacity:0;stroke-width:0.0953516"
     d="M 2.6221692,20 V 5.0774732 H 20 37.377831 V 20 34.922527 H 20 2.6221692 Z m 31.1698468,9.404052 0.01371,-0.441001 H 19.787248 5.7687723 v 0.421136 c 0,0.231626 0.014339,0.435475 0.031864,0.453001 0.017525,0.01752 6.3196707,0.02646 14.0047677,0.01986 l 13.972904,-0.012 z m 0.200833,-5.756853 v -0.45292 H 20 6.0071514 v 0.45292 0.45292 H 20 33.992849 Z m 0,-5.768772 v -0.45292 H 20 6.0071514 v 0.45292 0.45292 H 20 33.992849 Z m 0,-6.841478 V 10.274136 H 20 6.0071514 v 0.762813 0.762813 H 20 33.992849 Z"
     id="path34676" />
  <path
     style="fill:#e6e6e6;fill-opacity:0;stroke-width:0.0953516"
     d="M 2.6221692,20 V 5.0774732 H 20 37.377831 V 20 34.922527 H 20 2.6221692 Z m 31.1698468,9.404052 0.01371,-0.441001 H 19.787248 5.7687723 v 0.421136 c 0,0.231626 0.014339,0.435475 0.031864,0.453001 0.017525,0.01752 6.3196707,0.02646 14.0047677,0.01986 l 13.972904,-0.012 z m 0.200833,-5.756853 v -0.45292 H 20 6.0071514 v 0.45292 0.45292 H 20 33.992849 Z m 0,-5.768772 v -0.45292 H 20 6.0071514 v 0.45292 0.45292 H 20 33.992849 Z m 0,-6.841478 V 10.274136 H 20 6.0071514 v 0.762813 0.762813 H 20 33.992849 Z"
     id="path34715" />
  <path
     style="fill:#000000;fill-opacity:0;stroke-width:0.0953516"
     d="M 2.6221692,20 V 5.0774732 H 20 37.377831 V 20 34.922527 H 20 2.6221692 Z m 31.1698468,9.404052 0.01371,-0.441001 H 19.787248 5.7687723 v 0.421136 c 0,0.231626 0.014339,0.435475 0.031864,0.453001 0.017525,0.01752 6.3196707,0.02646 14.0047677,0.01986 l 13.972904,-0.012 z m 0.200833,-5.756853 v -0.45292 H 20 6.0071514 v 0.45292 0.45292 H 20 33.992849 Z m 0,-5.768772 v -0.45292 H 20 6.0071514 v 0.45292 0.45292 H 20 33.992849 Z m 0,-6.841478 V 10.274136 H 20 6.0071514 v 0.762813 0.762813 H 20 33.992849 Z"
     id="path34754" />
  <path
     style="fill:#000000;fill-opacity:0;stroke-width:0.0953516"
     d="M 2.6221692,20 V 5.0774732 H 20 37.377831 V 20 34.922527 H 20 2.6221692 Z m 31.1698468,9.404052 0.01371,-0.441001 H 19.787248 5.7687723 v 0.421136 c 0,0.231626 0.014339,0.435475 0.031864,0.453001 0.017525,0.01752 6.3196707,0.02646 14.0047677,0.01986 l 13.972904,-0.012 z m 0.200833,-5.756853 v -0.45292 H 20 6.0071514 v 0.45292 0.45292 H 20 33.992849 Z m 0,-5.768772 v -0.45292 H 20 6.0071514 v 0.45292 0.45292 H 20 33.992849 Z m 0,-6.841478 V 10.274136 H 20 6.0071514 v 0.762813 0.762813 H 20 33.992849 Z"
     id="path34830" />
  <path
     style="fill:#000000;fill-opacity:0;stroke-width:0.0953516"
     d="M 2.6221692,20 V 5.0774732 H 20 37.377831 V 20 34.922527 H 20 2.6221692 Z m 31.1698468,9.404052 0.01371,-0.441001 H 19.787248 5.7687723 v 0.421136 c 0,0.231626 0.014339,0.435475 0.031864,0.453001 0.017525,0.01752 6.3196707,0.02646 14.0047677,0.01986 l 13.972904,-0.012 z m 0.200833,-5.756853 v -0.45292 H 20 6.0071514 v 0.45292 0.45292 H 20 33.992849 Z m 0,-5.768772 v -0.45292 H 20 6.0071514 v 0.45292 0.45292 H 20 33.992849 Z m 0,-6.841478 V 10.274136 H 20 6.0071514 v 0.762813 0.762813 H 20 33.992849 Z"
     id="path34869" />
  <path
     style="fill:#000000;fill-opacity:0;stroke-width:0.0953516"
     d="M 2.6221692,20 V 5.0774732 H 20 37.377831 V 20 34.922527 H 20 2.6221692 Z m 31.1698468,9.404052 0.01371,-0.441001 H 19.787248 5.7687723 v 0.421136 c 0,0.231626 0.014339,0.435475 0.031864,0.453001 0.017525,0.01752 6.3196707,0.02646 14.0047677,0.01986 l 13.972904,-0.012 z m 0.200833,-5.756853 v -0.45292 H 20 6.0071514 v 0.45292 0.45292 H 20 33.992849 Z m 0,-5.768772 v -0.45292 H 20 6.0071514 v 0.45292 0.45292 H 20 33.992849 Z m 0,-6.841478 V 10.274136 H 20 6.0071514 v 0.762813 0.762813 H 20 33.992849 Z"
     id="path34908" />
  <path
     style="fill:#000000;fill-opacity:0;stroke-width:0.0953516"
     d="M 2.6221692,20 V 5.0774732 H 20 37.377831 V 20 34.922527 H 20 2.6221692 Z m 31.1698468,9.404052 0.01371,-0.441001 H 19.787248 5.7687723 v 0.421136 c 0,0.231626 0.014339,0.435475 0.031864,0.453001 0.017525,0.01752 6.3196707,0.02646 14.0047677,0.01986 l 13.972904,-0.012 z m 0.200833,-5.756853 v -0.45292 H 20 6.0071514 v 0.45292 0.45292 H 20 33.992849 Z m 0,-5.768772 v -0.45292 H 20 6.0071514 v 0.45292 0.45292 H 20 33.992849 Z m 0,-6.841478 V 10.274136 H 20 6.0071514 v 0.762813 0.762813 H 20 33.992849 Z"
     id="path34947" />
</svg>
