<?xml version="1.0" encoding="UTF-8" standalone="no"?>
<!-- Created with Inkscape (http://www.inkscape.org/) -->

<svg
   width="48"
   height="48"
   viewBox="0 0 12.7 12.7"
   version="1.1"
   id="svg5"
   inkscape:version="1.1.2 (0a00cf5339, 2022-02-04)"
   sodipodi:docname="logo.svg"
   xmlns:inkscape="http://www.inkscape.org/namespaces/inkscape"
   xmlns:sodipodi="http://sodipodi.sourceforge.net/DTD/sodipodi-0.dtd"
   xmlns="http://www.w3.org/2000/svg"
   xmlns:svg="http://www.w3.org/2000/svg">
  <sodipodi:namedview
     id="namedview7"
     pagecolor="#ffffff"
     bordercolor="#666666"
     borderopacity="1.0"
     inkscape:pageshadow="2"
     inkscape:pageopacity="0.0"
     inkscape:pagecheckerboard="0"
     inkscape:document-units="mm"
     showgrid="false"
     units="px"
     inkscape:zoom="11.95881"
     inkscape:cx="26.925755"
     inkscape:cy="17.309414"
     inkscape:window-width="1920"
     inkscape:window-height="1043"
     inkscape:window-x="1920"
     inkscape:window-y="0"
     inkscape:window-maximized="1"
     inkscape:current-layer="layer1" />
  <defs
     id="defs2" />
  <g
     inkscape:label="Layer 1"
     inkscape:groupmode="layer"
     id="layer1">
    <path
       style="fill:#000000;fill-opacity:1;stroke:#000000;stroke-width:0.0322151;stroke-linecap:round;stroke-linejoin:miter;stroke-miterlimit:4;stroke-dasharray:none;stroke-opacity:1"
       d="M 3.0494152,10.300253 4.7025928,8.2374412 C 4.4664491,7.2689736 4.9812427,6.9746013 5.6145635,6.2611472 6.2478844,5.5476929 6.9485441,4.900899 7.5164677,4.2942005 l 0.05335,0.7398479 0.1762501,-0.9224532 c 0,0 0.5286453,-0.4687655 0.8359203,-0.6524693 C 8.8153121,3.3196306 9.0323367,3.2838615 9.2124177,3.3729176 9.4675992,3.4991131 9.4893212,3.8839239 9.4053328,4.0572792 8.8467949,5.2101174 7.9445389,6.0533201 7.1359707,7.0889461 L 6.387875,7.347147 6.988151,7.3351388 C 6.8257553,7.7018663 6.5000378,7.9728992 6.1669291,8.2089918 5.9301797,8.3767892 5.6602938,8.567562 5.3588893,8.5742989 5.2209906,8.577381 4.9804093,8.423886 4.9804093,8.423886 L 7.4745039,5.5067895 Z"
       id="path3647"
       sodipodi:nodetypes="ccscccssscccaaccc" />
    <path
       style="fill:#007cdb;fill-opacity:1;stroke:#007cdb;stroke-width:0.0855237;stroke-linecap:round;stroke-linejoin:miter;stroke-miterlimit:4;stroke-dasharray:none;stroke-opacity:1"
       d="m 2.7630547,11.24996 c 0,0 -1.85754907,-2.1861493 -2.21285104,-3.6839036 C 0.29458973,6.4885312 0.32643817,5.2464994 0.71115445,4.183917 1.0897433,3.1382587 1.8514452,2.2106462 2.7249997,1.5125035 3.3408212,1.0203404 4.0973186,0.61543801 4.8849321,0.53492572 5.6961186,0.45200373 6.6618223,0.53408341 7.2707602,1.0704719 7.749518,1.49219 7.9301182,2.2308163 7.9096649,2.8644988 7.8981892,3.2200511 7.7746665,3.6328395 7.4869976,3.8464548 7.2675103,4.0094404 6.6694453,3.9438013 6.6694453,3.9438013 c 0,0 -0.2827955,0.4597858 -0.5171932,0.5618125 -0.2373641,0.103318 -0.7780262,-0.0023 -0.7780262,-0.0023 0,0 -0.3079501,0.4559063 -0.5509936,0.5497412 C 4.5587785,5.1551561 3.9724194,5.014838 3.9724194,5.014838 c 0,0 -0.8502533,0.6176739 -1.1323952,1.045333 C 2.5090677,6.5618244 2.3439335,7.1662497 2.24033,7.7563823 2.10613,8.5207951 2.0584072,9.3252273 2.222789,10.083855 c 0.090588,0.418064 0.5402655,1.166109 0.5402655,1.166109"
       id="path12321"
       sodipodi:nodetypes="caaaaaaacacacaaac" />
    <path
       style="fill:#007cdb;fill-opacity:1;stroke:#007cdb;stroke-width:0.0831594;stroke-linecap:round;stroke-linejoin:miter;stroke-miterlimit:4;stroke-dasharray:none;stroke-opacity:1"
       d="m 9.9254724,2.2826285 c 0,0 1.8574306,2.0670773 2.2127106,3.4832547 0.255597,1.0188369 0.223751,2.1932196 -0.160941,3.197927 C 11.598677,9.9525157 10.837024,10.829604 9.9635254,11.489721 9.3477427,11.955078 8.5912937,12.337927 7.8037297,12.414054 6.9925947,12.492454 6.026953,12.41485 5.418053,11.907676 4.939326,11.508928 4.758737,10.810532 4.779189,10.211364 4.790669,9.8751777 4.914179,9.4848727 5.20183,9.282892 5.421303,9.1287841 6.01933,9.190848 6.01933,9.190848 c 0,0 0.282778,-0.4347432 0.5171597,-0.531213 0.23735,-0.09769 0.777977,0.00215 0.777977,0.00215 0,0 0.307931,-0.4310741 0.550959,-0.5197982 0.264437,-0.09654 0.850759,0.036139 0.850759,0.036139 0,0 0.850199,-0.5840319 1.1323227,-0.9883978 C 10.179443,6.7154219 10.344567,6.1439172 10.448164,5.5859269 10.582355,4.8631494 10.630075,4.1025315 10.465704,3.3852233 10.375124,2.98993 9.9254724,2.2826285 9.9254724,2.2826285"
       id="path12321-3"
       sodipodi:nodetypes="caaaaaaacacacaaac" />
  </g>
</svg>
